M48
;DRILL file {KiCad (5.0.0)} date 05/20/19 16:12:13
;FORMAT={-:-/ absolute / inch / decimal}
FMAT,2
INCH,TZ
T1C0.0157
T2C0.0295
T3C0.0394
T4C0.0551
%
G90
G05
M72
T1
X4.6614Y-1.6929
X4.6909Y-1.7224
X4.7402Y-1.7244
X4.7933Y-1.7343
X4.7972Y-1.5138
X4.8445Y-1.5138
X4.8839Y-1.5118
X4.9232Y-1.5098
X5.9213Y-1.5669
X5.937Y-1.5118
X5.937Y-1.7323
X6.Y-1.5197
X6.1102Y-1.5984
X6.1339Y-1.5669
X6.1591Y-1.6125
X6.1811Y-1.5354
X6.4665Y-1.7146
X6.5354Y-1.5413
X6.5669Y-1.5157
X6.6181Y-1.9193
X6.7913Y-2.126
X6.8701Y-2.126
X6.9291Y-3.6772
X7.2362Y-3.6929
T2
X7.5591Y-1.1811
X7.6378Y-1.1811
X7.126Y-3.0709
X7.2047Y-3.0709
X7.126Y-3.5433
X7.2047Y-3.5433
X7.5591Y-1.4173
X7.6378Y-1.4173
X4.2913Y-1.1811
X4.3701Y-1.1811
X4.4488Y-1.1811
X4.5276Y-1.1811
X4.6063Y-1.1811
X4.685Y-1.1811
X4.7638Y-1.1811
X4.8425Y-1.1811
X4.9213Y-1.1811
X5.Y-1.1811
X5.0787Y-1.1811
X5.1575Y-1.1811
X5.2362Y-1.1811
X5.9449Y-1.1811
X6.0236Y-1.1811
X6.1024Y-1.1811
X6.1811Y-1.1811
X6.2598Y-1.1811
X6.3386Y-1.1811
X6.4173Y-1.1811
X6.4961Y-1.1811
X6.5748Y-1.1811
X6.6535Y-1.1811
X6.7323Y-1.1811
X6.9291Y-1.1811
X7.0079Y-1.1811
X7.126Y-3.3071
X7.2047Y-3.3071
X5.4331Y-1.1811
X5.5118Y-1.1811
X5.5906Y-1.1811
X5.6693Y-1.1811
X5.748Y-1.1811
X7.2047Y-1.1811
X7.2835Y-1.1811
X7.3622Y-1.1811
T3
X7.4378Y-2.6772
X7.5378Y-2.6772
X7.6378Y-2.6772
X5.935Y-2.15
X5.935Y-2.25
X5.935Y-2.35
X5.935Y-2.45
X5.935Y-2.55
X5.935Y-2.65
X5.935Y-2.75
X5.935Y-2.85
X5.935Y-2.95
X5.935Y-3.05
X5.935Y-3.15
X5.935Y-3.25
X5.935Y-3.35
X5.935Y-3.45
X5.935Y-3.55
X5.935Y-3.65
X6.735Y-2.55
X6.735Y-2.65
X6.735Y-2.75
X6.735Y-2.85
X6.735Y-2.95
X6.735Y-3.05
X6.735Y-3.15
X6.735Y-3.25
X6.735Y-3.35
X6.735Y-3.45
X6.735Y-3.55
X6.735Y-3.65
X4.8453Y-2.55
X4.8453Y-2.65
X4.8453Y-2.75
X4.8453Y-2.85
X4.8453Y-2.95
X4.8453Y-3.05
X4.8453Y-3.15
X4.8453Y-3.25
X4.8453Y-3.35
X4.8453Y-3.45
X4.8453Y-3.55
X4.8453Y-3.65
X5.798Y-2.55
X5.798Y-2.65
X5.798Y-2.75
X5.798Y-2.85
X5.798Y-2.95
X5.798Y-3.05
X5.798Y-3.15
X5.798Y-3.25
X5.798Y-3.35
X5.798Y-3.45
X5.798Y-3.55
X5.798Y-3.65
X4.0453Y-2.15
X4.0453Y-2.25
X4.0453Y-2.35
X4.0453Y-2.45
X4.0453Y-2.55
X4.0453Y-2.65
X4.0453Y-2.75
X4.0453Y-2.85
X4.0453Y-2.95
X4.0453Y-3.05
X4.0453Y-3.15
X4.0453Y-3.25
X4.0453Y-3.35
X4.0453Y-3.45
X4.0453Y-3.55
X4.0453Y-3.65
X4.998Y-2.15
X4.998Y-2.25
X4.998Y-2.35
X4.998Y-2.45
X4.998Y-2.55
X4.998Y-2.65
X4.998Y-2.75
X4.998Y-2.85
X4.998Y-2.95
X4.998Y-3.05
X4.998Y-3.15
X4.998Y-3.25
X4.998Y-3.35
X4.998Y-3.45
X4.998Y-3.55
X4.998Y-3.65
T4
X7.4409Y-2.1654
X7.6409Y-2.1654
X7.4409Y-3.189
X7.6409Y-3.189
X7.4409Y-1.7717
X7.6409Y-1.7717
X7.4409Y-3.622
X7.6409Y-3.622
T0
M30
