  0
SECTION
  2
HEADER
  9
$ACADVER
  1
AC1015
  9
$ACADMAINTVER
 70
     6
  9
$DWGCODEPAGE
  3
ANSI_1252
  9
$INSBASE
 10
0.0
 20
0.0
 30
0.0
  9
$EXTMIN
 10
0.0
 20
0.0
 30
0.0
  9
$EXTMAX
 10
560.5
 20
412.600006
 30
2.0
  9
$LIMMIN
 10
0.0
 20
0.0
  9
$LIMMAX
 10
420.0
 20
297.0
  9
$ORTHOMODE
 70
     0
  9
$REGENMODE
 70
     1
  9
$FILLMODE
 70
     1
  9
$QTEXTMODE
 70
     0
  9
$MIRRTEXT
 70
     1
  9
$LTSCALE
 40
1.0
  9
$ATTMODE
 70
     1
  9
$TEXTSIZE
 40
2.5
  9
$TRACEWID
 40
1.0
  9
$TEXTSTYLE
  7
Standard
  9
$CLAYER
  8
0
  9
$CELTYPE
  6
ByLayer
  9
$CECOLOR
 62
   256
  9
$CELTSCALE
 40
1.0
  9
$DISPSILH
 70
     0
  9
$DIMSCALE
 40
1.0
  9
$DIMASZ
 40
2.5
  9
$DIMEXO
 40
0.625
  9
$DIMDLI
 40
3.75
  9
$DIMRND
 40
0.0
  9
$DIMDLE
 40
0.0
  9
$DIMEXE
 40
1.25
  9
$DIMTP
 40
0.0
  9
$DIMTM
 40
0.0
  9
$DIMTXT
 40
2.5
  9
$DIMCEN
 40
2.5
  9
$DIMTSZ
 40
0.0
  9
$DIMTOL
 70
     0
  9
$DIMLIM
 70
     0
  9
$DIMTIH
 70
     0
  9
$DIMTOH
 70
     0
  9
$DIMSE1
 70
     0
  9
$DIMSE2
 70
     0
  9
$DIMTAD
 70
     1
  9
$DIMZIN
 70
     8
  9
$DIMBLK
  1

  9
$DIMASO
 70
     1
  9
$DIMSHO
 70
     1
  9
$DIMPOST
  1

  9
$DIMAPOST
  1

  9
$DIMALT
 70
     0
  9
$DIMALTD
 70
     3
  9
$DIMALTF
 40
0.03937
  9
$DIMLFAC
 40
1.0
  9
$DIMTOFL
 70
     1
  9
$DIMTVP
 40
0.0
  9
$DIMTIX
 70
     0
  9
$DIMSOXD
 70
     0
  9
$DIMSAH
 70
     0
  9
$DIMBLK1
  1

  9
$DIMBLK2
  1

  9
$DIMSTYLE
  2

  9
$DIMCLRD
 70
     0
  9
$DIMCLRE
 70
     0
  9
$DIMCLRT
 70
     0
  9
$DIMTFAC
 40
1.0
  9
$DIMGAP
 40
0.625
  9
$DIMJUST
 70
     0
  9
$DIMSD1
 70
     0
  9
$DIMSD2
 70
     0
  9
$DIMTOLJ
 70
     0
  9
$DIMTZIN
 70
     8
  9
$DIMALTZ
 70
     0
  9
$DIMALTTZ
 70
     0
  9
$DIMUPT
 70
     0
  9
$DIMDEC
 70
     2
  9
$DIMTDEC
 70
     2
  9
$DIMALTU
 70
     2
  9
$DIMALTTD
 70
     3
  9
$DIMTXSTY
  7
Standard
  9
$DIMAUNIT
 70
     0
  9
$DIMADEC
 70
     0
  9
$DIMALTRND
 40
0.0
  9
$DIMAZIN
 70
     0
  9
$DIMDSEP
 70
    44
  9
$DIMATFIT
 70
     0
  9
$DIMFRAC
 70
     0
  9
$DIMLDRBLK
  1

  9
$DIMLUNIT
 70
     2
  9
$DIMLWD
 70
    -2
  9
$DIMLWE
 70
    -2
  9
$DIMTMOVE
 70
     0
  9
$LUNITS
 70
     2
  9
$LUPREC
 70
     4
  9
$SKETCHINC
 40
1.0
  9
$FILLETRAD
 40
2.5
  9
$AUNITS
 70
     0
  9
$AUPREC
 70
     0
  9
$MENU
  1
.
  9
$ELEVATION
 40
0.0
  9
$PELEVATION
 40
0.0
  9
$THICKNESS
 40
0.0
  9
$LIMCHECK
 70
     0
  9
$CHAMFERA
 40
2.5
  9
$CHAMFERB
 40
2.5
  9
$CHAMFERC
 40
0.0
  9
$CHAMFERD
 40
0.0
  9
$SKPOLY
 70
     0
  9
$TDCREATE
 40
0.000000000
  9
$TDUCREATE
 40
0.000000000
  9
$TDUPDATE
 40
0.000000000
  9
$TDUUPDATE
 40
0.000000000
  9
$TDINDWG
 40
0.0000000000
  9
$TDUSRTIMER
 40
0.0000000000
  9
$USRTIMER
 70
     1
  9
$ANGBASE
 50
0.0
  9
$ANGDIR
 70
     0
  9
$PDMODE
 70
     0
  9
$PDSIZE
 40
0.0
  9
$PLINEWID
 40
0.0
  9
$SPLFRAME
 70
     0
  9
$SPLINETYPE
 70
     6
  9
$SPLINESEGS
 70
     8
  9
$HANDSEED
  5
A2
  9
$SURFTAB1
 70
     6
  9
$SURFTAB2
 70
     6
  9
$SURFTYPE
 70
     6
  9
$SURFU
 70
     6
  9
$SURFV
 70
     6
  9
$UCSBASE
  2

  9
$UCSNAME
  2

  9
$UCSORG
 10
0.0
 20
0.0
 30
0.0
  9
$UCSXDIR
 10
1.0
 20
0.0
 30
0.0
  9
$UCSYDIR
 10
0.0
 20
1.0
 30
0.0
  9
$UCSORTHOREF
  2

  9
$UCSORTHOVIEW
 70
     1
  9
$UCSORGTOP
 10
0.0
 20
0.0
 30
0.0
  9
$UCSORGBOTTOM
 10
0.0
 20
0.0
 30
0.0
  9
$UCSORGLEFT
 10
0.0
 20
0.0
 30
0.0
  9
$UCSORGRIGHT
 10
0.0
 20
0.0
 30
0.0
  9
$UCSORGFRONT
 10
0.0
 20
0.0
 30
0.0
  9
$UCSORGBACK
 10
0.0
 20
0.0
 30
0.0
  9
$PUCSBASE
  2

  9
$PUCSNAME
  2

  9
$PUCSORG
 10
0.0
 20
0.0
 30
0.0
  9
$PUCSXDIR
 10
1.0
 20
0.0
 30
0.0
  9
$PUCSYDIR
 10
0.0
 20
1.0
 30
0.0
  9
$PUCSORTHOREF
  2

  9
$PUCSORTHOVIEW
 70
     0
  9
$PUCSORGTOP
 10
0.0
 20
0.0
 30
0.0
  9
$PUCSORGBOTTOM
 10
0.0
 20
0.0
 30
0.0
  9
$PUCSORGLEFT
 10
0.0
 20
0.0
 30
0.0
  9
$PUCSORGRIGHT
 10
0.0
 20
0.0
 30
0.0
  9
$PUCSORGFRONT
 10
0.0
 20
0.0
 30
0.0
  9
$PUCSORGBACK
 10
0.0
 20
0.0
 30
0.0
  9
$USERI1
 70
     0
  9
$USERI2
 70
     0
  9
$USERI3
 70
     0
  9
$USERI4
 70
     0
  9
$USERI5
 70
     0
  9
$USERR1
 40
0.0
  9
$USERR2
 40
0.0
  9
$USERR3
 40
0.0
  9
$USERR4
 40
0.0
  9
$USERR5
 40
0.0
  9
$WORLDVIEW
 70
     1
  9
$SHADEDGE
 70
     3
  9
$SHADEDIF
 70
    70
  9
$TILEMODE
 70
     1
  9
$MAXACTVP
 70
    48
  9
$PINSBASE
 10
0.0
 20
0.0
 30
0.0
  9
$PLIMCHECK
 70
     0
  9
$PEXTMIN
 10
0.0
 20
0.0
 30
0.0
  9
$PEXTMAX
 10
560.5
 20
412.600006
 30
2.0
  9
$PLIMMIN
 10
0.0
 20
0.0
  9
$PLIMMAX
 10
420.0
 20
297.0
  9
$UNITMODE
 70
     0
  9
$VISRETAIN
 70
     0
  9
$PLINEGEN
 70
     0
  9
$PSLTSCALE
 70
     1
  9
$TREEDEPTH
 70
  3020
  9
$CMLSTYLE
  2
Standard
  9
$CMLJUST
 70
     0
  9
$CMLSCALE
 40
20.0
  9
$PROXYGRAPHICS
 70
     1
  9
$MEASUREMENT
 70
     1
  9
$CELWEIGHT
370
    -1
  9
$ENDCAPS
280
     0
  9
$JOINSTYLE
280
     0
  9
$LWDISPLAY
290
     0
  9
$INSUNITS
 70
     0
  9
$HYPERLINKBASE
  1

  9
$STYLESHEET
  1

  9
$XEDIT
290
     1
  9
$CEPSNTYPE
380
     0
  9
$PSTYLEMODE
290
     0
  9
$FINGERPRINTGUID
  2

  9
$VERSIONGUID
  2

  9
$EXTNAMES
290
     0
  9
$PSVPSCALE
 40
0.0
  0
ENDSEC
  0
SECTION
  2
CLASSES
  0
CLASS
  1
LWPOLYLINE
  2
AcDbPolyline
  3
AutoCAD 2000
 90
        0
280
     0
281
     1
  0
CLASS
  1
IMAGE
  2
AcDbRasterImage
  3
ISM
 90
      127
280
     0
281
     1
  0
CLASS
  1
OLE2FRAME
  2
AcDbOle2Frame
  3
AutoCAD 2000
 90
        0
280
     0
281
     1
  0
CLASS
  1
HATCH
  2
AcDbHatch
  3
AutoCAD 2000
 90
        0
280
     0
281
     1
  0
CLASS
  1
DICTIONARYVAR
  2
AcDbDictionaryVar
  3
AutoCAD 2000
 90
        0
280
     0
281
     0
  0
CLASS
  1
RASTERVARIABLES
  2
AcDbRasterVariables
  3
ISM
 90
        0
280
     0
281
     0
  0
CLASS
  1
IMAGEDEF
  2
AcDbRasterImageDef
  3
ISM
 90
        0
280
     0
281
     0
  0
CLASS
  1
IMAGEDEF_REACTOR
  2
AcDbRasterImageDefReactor
  3
ISM
 90
        1
280
     0
281
     0
  0
CLASS
  1
IDBUFFER
  2
AcDbIdBuffer
  3
AutoCAD 2000
 90
        0
280
     0
281
     0
  0
CLASS
  1
SPATIAL_FILTER
  2
AcDbSpatialFilter
  3
AutoCAD 2000
 90
        0
280
     0
281
     0
  0
CLASS
  1
XRECORD
  2
AcDbXrecord
  3
AutoCAD 2000
 90
        0
280
     0
281
     0
  0
CLASS
  1
SORTENTSTABLE
  2
AcDbSortentsTable
  3
AutoCAD 2000
 90
        0
280
     0
281
     0
  0
CLASS
  1
LAYER_INDEX
  2
AcDbLayerIndex
  3
AutoCAD 2000
 90
        0
280
     0
281
     0
  0
CLASS
  1
SPATIAL_INDEX
  2
AcDbSpatialIndex
  3
AutoCAD 2000
 90
        0
280
     0
281
     0
  0
CLASS
  1
OBJECT_PTR
  2
CAseDLPNTableRecord
  3
"ASE-LPNTableRecord"
 90
        1
280
     0
281
     0
  0
CLASS
  1
LAYOUT
  2
AcDbLayout
  3
AutoCAD 2000
 90
        0
280
     0
281
     0
  0
CLASS
  1
PLOTSETTINGS
  2
AcDbPlotSettings
  3
AutoCAD 2000
 90
        0
280
     0
281
     0
  0
CLASS
  1
ACDBDICTIONARYWDFLT
  2
AcDbDictionaryWithDefault
  3
AutoCAD 2000
 90
        0
280
     0
281
     0
  0
CLASS
  1
ACDBPLACEHOLDER
  2
AcDbPlaceHolder
  3
AutoCAD 2000
 90
        0
280
     0
281
     0
  0
CLASS
  1
VBA_PROJECT
  2
AcDbVbaProject
  3
acadvba
 90
        0
280
     0
281
     0
  0
CLASS
  1
WIPEOUT
  2
AcDbWipeout
  3
WipeOut|AutoCAD Express Tool|expresstools@autodesk.com
 90
      127
280
     0
281
     1
  0
CLASS
  1
WIPEOUTVARIABLES
  2
AcDbWipeoutVariables
  3
WipeOut|AutoCAD Express Tool|expresstools@autodesk.com
 90
        0
280
     0
281
     0
  0
CLASS
  1
RTEXT
  2
RText
  3
RText|AutoCAD Express Tool|expresstools@autodesk.com
 90
        0
280
     0
281
     1
  0
CLASS
  1
ARCALIGNEDTEXT
  2
AcDbArcAlignedText
  3
ATEXT|AutoCAD Express Tool|expresstools@autodesk.com
 90
        0
280
     0
281
     1
  0
ENDSEC
  0
SECTION
  2
TABLES
  0
TABLE
  2
VPORT
  5
7
100
AcDbSymbolTable
 70
     1
  0
VPORT
  5
15
100
AcDbSymbolTableRecord
100
AcDbViewportTableRecord
  2
*ACTIVE
 70
     0
 10
0.0
 20
0.0
 11
1.0
 21
1.0
 12
6.591288
 22
4.579184
 13
0.0
 23
0.0
 14
1.0
 24
1.0
 15
0.0
 25
0.0
 16
0.0
 26
0.0
 36
1.0
 17
0.0
 27
0.0
 37
0.0
 40
9.158369
 41
0.688564
 42
50.0
 43
0.0
 44
0.0
 50
0.0
 51
0.0
 71
     0
 72
   100
 73
     1
 74
     1
 75
     0
 76
     0
 77
     0
 78
     0
281
     0
 65
     0
110
0.0
120
0.0
130
0.0
111
1.0
121
0.0
131
0.0
112
0.0
122
1.0
132
0.0
345
0
346
0
 79
     0
146
0.0
  0
ENDTAB
  0
TABLE
  2
LTYPE
  5
4
100
AcDbSymbolTable
 70
     3
  0
LTYPE
  5
11
100
AcDbSymbolTableRecord
100
AcDbLinetypeTableRecord
  2
ByBlock
 70
    64
  3

 72
    65
 73
     0
 40
0.0
  0
LTYPE
  5
12
100
AcDbSymbolTableRecord
100
AcDbLinetypeTableRecord
  2
ByLayer
 70
    64
  3

 72
    65
 73
     0
 40
0.0
  0
LTYPE
  5
13
100
AcDbSymbolTableRecord
100
AcDbLinetypeTableRecord
  2
Continuous
 70
    64
  3
Solid line
 72
    65
 73
     0
 40
0.0
  0
ENDTAB
  0
TABLE
  2
LAYER
  5
2
100
AcDbSymbolTable
 70
     1
  0
LAYER
  5
14
100
AcDbSymbolTableRecord
100
AcDbLayerTableRecord
  2
0
 70
     0
 62
     7
  6
Continuous
290
     1
370
    -3
390
1D
  0
ENDTAB
  0
TABLE
  2
STYLE
  5
3
100
AcDbSymbolTable
 70
     1
  0
STYLE
  5
17
100
AcDbSymbolTableRecord
100
AcDbTextStyleTableRecord
  2
Standard
 70
     0
 40
0.0
 41
1.0
 50
0.0
 71
     0
 42
0.0
  3
txt
  4

  0
ENDTAB
  0
TABLE
  2
VIEW
  5
5
100
AcDbSymbolTable
 70
     0
  0
ENDTAB
  0
TABLE
  2
UCS
  5
6
100
AcDbSymbolTable
 70
     0
  0
ENDTAB
  0
TABLE
  2
APPID
  5
8
100
AcDbSymbolTable
 70
     1
  0
APPID
  5
16
100
AcDbSymbolTableRecord
100
AcDbRegAppTableRecord
  2
ACAD
 70
     0
  0
ENDTAB
  0
TABLE
  2
DIMSTYLE
  5
9
100
AcDbSymbolTable
 70
     1
100
AcDbDimStyleTable
 71
     0
  0
DIMSTYLE
105
18
100
AcDbSymbolTableRecord
100
AcDbDimStyleTableRecord
  2
Standard
 70
     0
  3

  4

 40
1.0
 41
0.18
 42
0.0625
 43
0.38
 44
0.18
 45
0.0
 46
0.0
 47
0.0
 48
0.0
 71
     0
 72
     0
 73
     1
 74
     1
 75
     0
 76
     0
 77
     0
 78
     0
 79
     0
140
0.18
141
0.09
142
0.0
143
25.4
144
1.0
145
0.0
146
1.0
147
0.09
148
0.0
170
     0
171
     2
172
     0
173
     0
174
     0
175
     0
176
     0
177
     0
178
     0
179
     0
271
     4
272
     4
273
     2
274
     2
275
     0
276
     0
277
     2
278
    46
279
     0
280
     0
281
     0
282
     0
283
     1
284
     0
285
     0
286
     0
288
     0
289
     3
340
17
341
0
342
0
343
0
344
0
371
    -2
372
    -2
  0
ENDTAB
  0
TABLE
  2
BLOCK_RECORD
  5
1
100
AcDbSymbolTable
 70
     0
  0
BLOCK_RECORD
  5
A
100
AcDbSymbolTableRecord
100
AcDbBlockTableRecord
  2
*MODEL_SPACE
340
20
  0
BLOCK_RECORD
  5
B
100
AcDbSymbolTableRecord
100
AcDbBlockTableRecord
  2
*PAPER_SPACE
340
21
  0
ENDTAB
  0
ENDSEC
  0
SECTION
  2
BLOCKS
  0
BLOCK
  5
D
100
AcDbEntity
  8
0
390
0
100
AcDbBlockBegin
  2
*MODEL_SPACE
 70
     0
 10
0.0
 20
0.0
 30
0.0
  3
*MODEL_SPACE
  1

  0
ENDBLK
  5
E
100
AcDbEntity
  8
0
390
0
100
AcDbBlockEnd
  0
BLOCK
  5
F
100
AcDbEntity
 67
     1
  8
0
390
0
100
AcDbBlockBegin
  2
*PAPER_SPACE
 70
     0
 10
0.0
 20
0.0
 30
0.0
  3
*PAPER_SPACE
  1

  0
ENDBLK
  5
10
100
AcDbEntity
 67
     1
  8
0
390
0
100
AcDbBlockEnd
  0
ENDSEC
  0
SECTION
  2
ENTITIES
  0
VIEWPORT
  5
A1
100
AcDbEntity
 67
     1
  8
0
370
     0
390
0
 62
     0
 48
0.0
100
AcDbViewport
 10
0.0
 20
0.0
 30
0.0
 40
1000.0
 41
1000.0
 68
     1
 69
     1
 12
0.0
 22
0.0
 13
0.0
 23
0.0
 14
1.0
 24
1.0
 15
1.0
 25
1.0
 16
0.0
 26
0.0
 36
1.0
 17
0.0
 27
0.0
 37
0.0
 42
50.0
 43
0.0
 44
0.0
 45
1000.0
 50
0.0
 51
0.0
 72
   100
 90
        0
340
0
  1

281
     0
 71
     0
 74
     1
110
0.0
120
0.0
130
0.0
111
1.0
121
0.0
131
0.0
112
0.0
122
1.0
132
0.0
345
0
346
0
 79
     0
146
0.0
  0
LINE
  5
24
100
AcDbEntity
  8
0
370
    35
390
0
 62
     7
100
AcDbLine
 10
530.5
 20
300.600006
 30
0.0
 11
530.5
 21
410.600006
 31
0.0
210
0.0
220
0.0
230
1.0
  0
LINE
  5
25
100
AcDbEntity
  8
0
370
    35
390
0
 62
     7
100
AcDbLine
 10
455.5
 20
300.600006
 30
0.0
 11
530.5
 21
300.600006
 31
0.0
210
0.0
220
0.0
230
1.0
  0
LINE
  5
26
100
AcDbEntity
  8
0
370
    35
390
0
 62
     7
100
AcDbLine
 10
455.5
 20
410.600006
 30
0.0
 11
455.5
 21
300.600006
 31
0.0
210
0.0
220
0.0
230
1.0
  0
LINE
  5
27
100
AcDbEntity
  8
0
370
    35
390
0
 62
     7
100
AcDbLine
 10
530.5
 20
410.600006
 30
0.0
 11
455.5
 21
410.600006
 31
0.0
210
0.0
220
0.0
230
1.0
  0
CIRCLE
  5
28
100
AcDbEntity
  8
0
370
    35
390
0
 62
     7
100
AcDbCircle
 10
458.424988
 20
407.675018
 30
0.0
 40
1.575
210
0.0
220
0.0
230
1.0
  0
CIRCLE
  5
29
100
AcDbEntity
  8
0
370
    35
390
0
 62
     7
100
AcDbCircle
 10
458.424988
 20
303.524994
 30
0.0
 40
1.575
210
0.0
220
0.0
230
1.0
  0
CIRCLE
  5
2A
100
AcDbEntity
  8
0
370
    35
390
0
 62
     7
100
AcDbCircle
 10
527.575012
 20
303.524994
 30
0.0
 40
1.575
210
0.0
220
0.0
230
1.0
  0
CIRCLE
  5
2B
100
AcDbEntity
  8
0
370
    35
390
0
 62
     7
100
AcDbCircle
 10
527.575012
 20
407.675018
 30
0.0
 40
1.575
210
0.0
220
0.0
230
1.0
  0
LINE
  5
2C
100
AcDbEntity
  8
0
370
    35
390
0
 62
     7
100
AcDbLine
 10
455.5
 20
412.600006
 30
0.0
 11
555.5
 21
412.600006
 31
0.0
210
0.0
220
0.0
230
1.0
  0
LINE
  5
2D
100
AcDbEntity
  8
0
370
    35
390
0
 62
     7
 48
0.05
100
AcDbLine
 10
455.5
 20
410.600006
 30
0.0
 11
455.5
 21
412.600006
 31
0.0
210
0.0
220
0.0
230
1.0
  0
ARC
  5
2E
100
AcDbEntity
  8
0
370
    35
390
0
 62
     7
100
AcDbCircle
 10
555.5
 20
407.600006
 30
0.0
 40
5.0
210
0.0
220
0.0
230
1.0
100
AcDbArc
 50
0.0
 51
90.000003
  0
LINE
  5
2F
100
AcDbEntity
  8
0
370
    35
390
0
 62
     7
100
AcDbLine
 10
560.5
 20
407.600006
 30
0.0
 11
560.5
 21
355.600006
 31
0.0
210
0.0
220
0.0
230
1.0
  0
LINE
  5
30
100
AcDbEntity
  8
0
370
    35
390
0
 62
     7
100
AcDbLine
 10
560.5
 20
303.600006
 30
0.0
 11
560.5
 21
355.600006
 31
0.0
210
0.0
220
0.0
230
1.0
  0
ARC
  5
31
100
AcDbEntity
  8
0
370
    35
390
0
 62
     7
100
AcDbCircle
 10
555.5
 20
303.600006
 30
0.0
 40
5.0
210
0.0
220
0.0
230
1.0
100
AcDbArc
 50
269.999997
 51
360.0
  0
LINE
  5
32
100
AcDbEntity
  8
0
370
    35
390
0
 62
     7
100
AcDbLine
 10
455.5
 20
298.600006
 30
0.0
 11
555.5
 21
298.600006
 31
0.0
210
0.0
220
0.0
230
1.0
  0
LINE
  5
33
100
AcDbEntity
  8
0
370
    35
390
0
 62
     7
 48
0.05
100
AcDbLine
 10
455.5
 20
300.600006
 30
0.0
 11
455.5
 21
298.600006
 31
0.0
210
0.0
220
0.0
230
1.0
  0
CIRCLE
  5
34
100
AcDbEntity
  8
0
370
    35
390
0
 62
     7
100
AcDbCircle
 10
527.575012
 20
407.675018
 30
0.0
 40
1.25
210
0.0
220
0.0
230
1.0
  0
CIRCLE
  5
35
100
AcDbEntity
  8
0
370
    35
390
0
 62
     7
100
AcDbCircle
 10
458.424988
 20
407.675018
 30
0.0
 40
1.25
210
0.0
220
0.0
230
1.0
  0
CIRCLE
  5
36
100
AcDbEntity
  8
0
370
    35
390
0
 62
     7
100
AcDbCircle
 10
527.575012
 20
303.524994
 30
0.0
 40
1.25
210
0.0
220
0.0
230
1.0
  0
CIRCLE
  5
37
100
AcDbEntity
  8
0
370
    35
390
0
 62
     7
100
AcDbCircle
 10
458.424988
 20
303.524994
 30
0.0
 40
1.25
210
0.0
220
0.0
230
1.0
  0
CIRCLE
  5
38
100
AcDbEntity
  8
0
370
    35
390
0
 62
     7
100
AcDbCircle
 10
545.5
 20
394.533295
 30
0.0
 40
9.7
210
0.0
220
0.0
230
1.0
  0
CIRCLE
  5
39
100
AcDbEntity
  8
0
370
    35
390
0
 62
     7
100
AcDbCircle
 10
545.5
 20
369.133301
 30
0.0
 40
9.7
210
0.0
220
0.0
230
1.0
  0
CIRCLE
  5
3A
100
AcDbEntity
  8
0
370
    35
390
0
 62
     7
100
AcDbCircle
 10
545.5
 20
327.950897
 30
0.0
 40
3.7
210
0.0
220
0.0
230
1.0
  0
CIRCLE
  5
3B
100
AcDbEntity
  8
0
370
    35
390
0
 62
     7
100
AcDbCircle
 10
545.5
 20
312.999146
 30
0.0
 40
3.7
210
0.0
220
0.0
230
1.0
  0
ARC
  5
3C
100
AcDbEntity
  8
0
370
    35
390
0
 62
     7
100
AcDbCircle
 10
545.305115
 20
346.949158
 30
0.0
 40
1.75
210
0.0
220
0.0
230
1.0
100
AcDbArc
 50
165.940716
 51
44.059283
  0
LINE
  5
3D
100
AcDbEntity
  8
0
370
    35
390
0
 62
     7
 48
0.076485
100
AcDbLine
 10
543.607544
 20
347.374268
 30
0.0
 11
546.562683
 21
348.166107
 31
0.0
210
0.0
220
0.0
230
1.0
  0
ARC
  5
3E
100
AcDbEntity
  8
0
370
    35
390
0
 62
     7
100
AcDbCircle
 10
545.305115
 20
346.949158
 30
0.0
 40
7.5
210
0.0
220
0.0
230
1.0
100
AcDbArc
 50
292.223316
 51
247.776679
  0
ARC
  5
3F
100
AcDbEntity
  8
0
370
    35
390
0
 62
     7
100
AcDbCircle
 10
547.76355
 20
340.932007
 30
0.0
 40
1.0
210
0.0
220
0.0
230
1.0
100
AcDbArc
 50
180.000005
 51
292.223316
  0
LINE
  5
40
100
AcDbEntity
  8
0
370
    35
390
0
 62
     7
 48
0.012811
100
AcDbLine
 10
546.76355
 20
340.932007
 30
0.0
 11
546.76355
 21
341.444427
 31
0.0
210
0.0
220
0.0
230
1.0
  0
ARC
  5
41
100
AcDbEntity
  8
0
370
    35
390
0
 62
     7
100
AcDbCircle
 10
545.305115
 20
341.444427
 30
0.0
 40
1.458414
210
0.0
220
0.0
230
1.0
100
AcDbArc
 50
0.0
 51
180.000005
  0
LINE
  5
42
100
AcDbEntity
  8
0
370
    35
390
0
 62
     7
 48
0.012811
100
AcDbLine
 10
543.84668
 20
341.444427
 30
0.0
 11
543.84668
 21
340.932007
 31
0.0
210
0.0
220
0.0
230
1.0
  0
ARC
  5
43
100
AcDbEntity
  8
0
370
    35
390
0
 62
     7
100
AcDbCircle
 10
542.84668
 20
340.932007
 30
0.0
 40
1.0
210
0.0
220
0.0
230
1.0
100
AcDbArc
 50
247.776679
 51
0.0
  0
CIRCLE
  5
44
100
AcDbEntity
  8
0
370
    35
390
0
 62
     7
100
AcDbCircle
 10
545.508179
 20
394.711761
 30
0.0
 40
9.5
210
0.0
220
0.0
230
1.0
  0
LINE
  5
45
100
AcDbEntity
  8
0
370
    35
390
0
 62
     7
 48
0.026923
100
AcDbLine
 10
540.758179
 20
402.939026
 30
0.0
 11
539.825562
 21
402.400543
 31
0.0
210
0.0
220
0.0
230
1.0
  0
LINE
  5
46
100
AcDbEntity
  8
0
370
    35
390
0
 62
     7
 48
0.045544
100
AcDbLine
 10
536.008179
 20
396.533508
 30
0.0
 11
536.008179
 21
394.711761
 31
0.0
210
0.0
220
0.0
230
1.0
  0
LINE
  5
47
100
AcDbEntity
  8
0
370
    35
390
0
 62
     7
 48
0.054481
100
AcDbLine
 10
536.008179
 20
394.711761
 30
0.0
 11
536.008179
 21
392.532532
 31
0.0
210
0.0
220
0.0
230
1.0
  0
LINE
  5
48
100
AcDbEntity
  8
0
370
    35
390
0
 62
     7
 48
0.06331
100
AcDbLine
 10
538.565063
 20
387.750732
 30
0.0
 11
540.758179
 21
386.484528
 31
0.0
210
0.0
220
0.0
230
1.0
  0
LINE
  5
49
100
AcDbEntity
  8
0
370
    35
390
0
 62
     7
 48
0.067408
100
AcDbLine
 10
540.758179
 20
386.484528
 30
0.0
 11
543.093262
 21
385.136383
 31
0.0
210
0.0
220
0.0
230
1.0
  0
LINE
  5
4A
100
AcDbEntity
  8
0
370
    35
390
0
 62
     7
 48
0.067006
100
AcDbLine
 10
547.937012
 20
385.144409
 30
0.0
 11
550.258179
 21
386.484528
 31
0.0
210
0.0
220
0.0
230
1.0
  0
LINE
  5
4B
100
AcDbEntity
  8
0
370
    35
390
0
 62
     7
 48
0.052503
100
AcDbLine
 10
555.008179
 20
392.611633
 30
0.0
 11
555.008179
 21
394.711761
 31
0.0
210
0.0
220
0.0
230
1.0
  0
LINE
  5
4C
100
AcDbEntity
  8
0
370
    35
390
0
 62
     7
 48
0.062221
100
AcDbLine
 10
550.258179
 20
386.484528
 30
0.0
 11
552.413574
 21
387.728943
 31
0.0
210
0.0
220
0.0
230
1.0
  0
LINE
  5
4D
100
AcDbEntity
  8
0
370
    35
390
0
 62
     7
 48
0.024472
100
AcDbLine
 10
551.105896
 20
402.449585
 30
0.0
 11
550.258179
 21
402.939026
 31
0.0
210
0.0
220
0.0
230
1.0
  0
LINE
  5
4E
100
AcDbEntity
  8
0
370
    35
390
0
 62
     7
 48
0.043568
100
AcDbLine
 10
555.008179
 20
394.711761
 30
0.0
 11
555.008179
 21
396.454468
 31
0.0
210
0.0
220
0.0
230
1.0
  0
LINE
  5
4F
100
AcDbEntity
  8
0
370
    35
390
0
 62
     7
 48
0.022115
100
AcDbLine
 10
541.524292
 20
403.381317
 30
0.0
 11
540.758179
 21
402.939026
 31
0.0
210
0.0
220
0.0
230
1.0
  0
LINE
  5
50
100
AcDbEntity
  8
0
370
    35
390
0
 62
     7
 48
0.020342
100
AcDbLine
 10
550.258179
 20
402.939026
 30
0.0
 11
549.553528
 21
403.345856
 31
0.0
210
0.0
220
0.0
230
1.0
  0
CIRCLE
  5
51
100
AcDbEntity
  8
0
370
    35
390
0
 62
     7
100
AcDbCircle
 10
545.508179
 20
394.711761
 30
0.0
 40
9.15
210
0.0
220
0.0
230
1.0
  0
ARC
  5
52
100
AcDbEntity
  8
0
370
    13
390
0
 62
     7
100
AcDbCircle
 10
544.05542
 20
396.92807
 30
0.0
 40
0.3
210
0.0
220
0.0
230
1.0
100
AcDbArc
 50
303.244891
 51
29.999997
  0
ARC
  5
53
100
AcDbEntity
  8
0
370
    35
390
0
 62
     7
100
AcDbCircle
 10
544.05542
 20
396.92807
 30
0.0
 40
0.15
210
0.0
220
0.0
230
1.0
100
AcDbArc
 50
303.244891
 51
30.000001
  0
LINE
  5
54
100
AcDbEntity
  8
0
370
    13
390
0
 62
     7
 48
0.00375
100
AcDbLine
 10
544.219849
 20
396.677155
 30
0.0
 11
544.137634
 21
396.802612
 31
0.0
210
0.0
220
0.0
230
1.0
  0
CIRCLE
  5
55
100
AcDbEntity
  8
0
370
    13
390
0
 62
     7
100
AcDbCircle
 10
545.508179
 20
394.711761
 30
0.0
 40
5.6
210
0.0
220
0.0
230
1.0
  0
ARC
  5
56
100
AcDbEntity
  8
0
370
    13
390
0
 62
     7
100
AcDbCircle
 10
543.955261
 20
397.101532
 30
0.0
 40
0.3
210
0.0
220
0.0
230
1.0
100
AcDbArc
 50
30.000001
 51
123.016966
  0
LINE
  5
57
100
AcDbEntity
  8
0
370
    13
390
0
 62
     7
 48
0.005007
100
AcDbLine
 10
544.215088
 20
397.251526
 30
0.0
 11
544.315186
 21
397.078064
 31
0.0
210
0.0
220
0.0
230
1.0
  0
ARC
  5
58
100
AcDbEntity
  8
0
370
    13
390
0
 62
     7
100
AcDbCircle
 10
545.508179
 20
394.711761
 30
0.0
 40
2.35
210
0.0
220
0.0
230
1.0
100
AcDbArc
 50
123.24489
 51
56.755109
  0
ARC
  5
59
100
AcDbEntity
  8
0
370
    13
390
0
 62
     7
100
AcDbCircle
 10
546.960938
 20
396.92807
 30
0.0
 40
0.3
210
0.0
220
0.0
230
1.0
100
AcDbArc
 50
149.999997
 51
236.75511
  0
LINE
  5
5A
100
AcDbEntity
  8
0
370
    13
390
0
 62
     7
 48
0.005008
100
AcDbLine
 10
546.701172
 20
397.078064
 30
0.0
 11
546.801331
 21
397.251526
 31
0.0
210
0.0
220
0.0
230
1.0
  0
ARC
  5
5B
100
AcDbEntity
  8
0
370
    13
390
0
 62
     7
100
AcDbCircle
 10
547.061096
 20
397.101532
 30
0.0
 40
0.3
210
0.0
220
0.0
230
1.0
100
AcDbArc
 50
56.983039
 51
149.999997
  0
ARC
  5
5C
100
AcDbEntity
  8
0
370
    13
390
0
 62
     7
100
AcDbCircle
 10
545.508179
 20
394.711761
 30
0.0
 40
3.15
210
0.0
220
0.0
230
1.0
100
AcDbArc
 50
123.016966
 51
56.983039
  0
ARC
  5
5D
100
AcDbEntity
  8
0
370
    13
390
0
 62
     7
100
AcDbCircle
 10
545.408203
 20
398.561768
 30
0.0
 40
0.3
210
0.0
220
0.0
230
1.0
100
AcDbArc
 50
90.000003
 51
180.000005
  0
LINE
  5
5E
100
AcDbEntity
  8
0
370
    13
390
0
 62
     7
 48
0.004999
100
AcDbLine
 10
545.408203
 20
398.861786
 30
0.0
 11
545.608154
 21
398.861786
 31
0.0
210
0.0
220
0.0
230
1.0
  0
ARC
  5
5F
100
AcDbEntity
  8
0
370
    13
390
0
 62
     7
100
AcDbCircle
 10
545.608154
 20
398.561768
 30
0.0
 40
0.3
210
0.0
220
0.0
230
1.0
100
AcDbArc
 50
0.0
 51
90.000003
  0
LINE
  5
60
100
AcDbEntity
  8
0
370
    13
390
0
 62
     7
 48
0.0925
100
AcDbLine
 10
545.908203
 20
398.561768
 30
0.0
 11
545.908203
 21
394.861786
 31
0.0
210
0.0
220
0.0
230
1.0
  0
ARC
  5
61
100
AcDbEntity
  8
0
370
    13
390
0
 62
     7
100
AcDbCircle
 10
545.608154
 20
394.861786
 30
0.0
 40
0.3
210
0.0
220
0.0
230
1.0
100
AcDbArc
 50
269.999997
 51
360.0
  0
LINE
  5
62
100
AcDbEntity
  8
0
370
    13
390
0
 62
     7
 48
0.004999
100
AcDbLine
 10
545.608154
 20
394.561768
 30
0.0
 11
545.408203
 21
394.561768
 31
0.0
210
0.0
220
0.0
230
1.0
  0
ARC
  5
63
100
AcDbEntity
  8
0
370
    13
390
0
 62
     7
100
AcDbCircle
 10
545.408203
 20
394.861786
 30
0.0
 40
0.3
210
0.0
220
0.0
230
1.0
100
AcDbArc
 50
179.999995
 51
269.999997
  0
LINE
  5
64
100
AcDbEntity
  8
0
370
    13
390
0
 62
     7
 48
0.0925
100
AcDbLine
 10
545.108154
 20
394.861786
 30
0.0
 11
545.108154
 21
398.561768
 31
0.0
210
0.0
220
0.0
230
1.0
  0
LINE
  5
65
100
AcDbEntity
  8
0
370
    13
390
0
 62
     7
 48
0.00375
100
AcDbLine
 10
544.315186
 20
397.078064
 30
0.0
 11
544.185303
 21
397.003052
 31
0.0
210
0.0
220
0.0
230
1.0
  0
ARC
  5
66
100
AcDbEntity
  8
0
370
    35
390
0
 62
     7
100
AcDbCircle
 10
545.508179
 20
394.711761
 30
0.0
 40
2.5
210
0.0
220
0.0
230
1.0
100
AcDbArc
 50
123.24489
 51
360.0
  0
LINE
  5
67
100
AcDbEntity
  8
0
370
    35
390
0
 62
     7
 48
0.005008
100
AcDbLine
 10
544.085144
 20
397.176514
 30
0.0
 11
544.185303
 21
397.003052
 31
0.0
210
0.0
220
0.0
230
1.0
  0
ARC
  5
68
100
AcDbEntity
  8
0
370
    35
390
0
 62
     7
100
AcDbCircle
 10
543.955261
 20
397.101532
 30
0.0
 40
0.15
210
0.0
220
0.0
230
1.0
100
AcDbArc
 50
29.999997
 51
123.016966
  0
ARC
  5
69
100
AcDbEntity
  8
0
370
    35
390
0
 62
     7
100
AcDbCircle
 10
545.508179
 20
394.711761
 30
0.0
 40
3.0
210
0.0
220
0.0
230
1.0
100
AcDbArc
 50
123.016966
 51
56.983039
  0
ARC
  5
6A
100
AcDbEntity
  8
0
370
    35
390
0
 62
     7
100
AcDbCircle
 10
547.061096
 20
397.101532
 30
0.0
 40
0.15
210
0.0
220
0.0
230
1.0
100
AcDbArc
 50
56.983039
 51
149.999997
  0
LINE
  5
6B
100
AcDbEntity
  8
0
370
    35
390
0
 62
     7
 48
0.005008
100
AcDbLine
 10
546.831055
 20
397.003052
 30
0.0
 11
546.931213
 21
397.176514
 31
0.0
210
0.0
220
0.0
230
1.0
  0
ARC
  5
6C
100
AcDbEntity
  8
0
370
    35
390
0
 62
     7
100
AcDbCircle
 10
546.960938
 20
396.92807
 30
0.0
 40
0.15
210
0.0
220
0.0
230
1.0
100
AcDbArc
 50
149.999997
 51
236.75511
  0
ARC
  5
6D
100
AcDbEntity
  8
0
370
    35
390
0
 62
     7
100
AcDbCircle
 10
545.508179
 20
394.711761
 30
0.0
 40
2.5
210
0.0
220
0.0
230
1.0
100
AcDbArc
 50
0.0
 51
56.755109
  0
CIRCLE
  5
6E
100
AcDbEntity
  8
0
370
    35
390
0
 62
     7
100
AcDbCircle
 10
545.508179
 20
394.711761
 30
0.0
 40
5.75
210
0.0
220
0.0
230
1.0
  0
LINE
  5
6F
100
AcDbEntity
  8
0
370
    13
390
0
 62
     7
 48
0.00375
100
AcDbLine
 10
543.873535
 20
397.227295
 30
0.0
 11
543.791809
 21
397.353088
 31
0.0
210
0.0
220
0.0
230
1.0
  0
LINE
  5
70
100
AcDbEntity
  8
0
370
    13
390
0
 62
     7
 48
0.003751
100
AcDbLine
 10
544.085144
 20
397.176514
 30
0.0
 11
544.215088
 21
397.251526
 31
0.0
210
0.0
220
0.0
230
1.0
  0
LINE
  5
71
100
AcDbEntity
  8
0
370
    13
390
0
 62
     7
 48
0.00375
100
AcDbLine
 10
546.796509
 20
396.677155
 30
0.0
 11
546.878723
 21
396.802612
 31
0.0
210
0.0
220
0.0
230
1.0
  0
LINE
  5
72
100
AcDbEntity
  8
0
370
    13
390
0
 62
     7
 48
0.00375
100
AcDbLine
 10
546.701172
 20
397.078064
 30
0.0
 11
546.831055
 21
397.003052
 31
0.0
210
0.0
220
0.0
230
1.0
  0
LINE
  5
73
100
AcDbEntity
  8
0
370
    13
390
0
 62
     7
 48
0.00375
100
AcDbLine
 10
546.931213
 20
397.176514
 30
0.0
 11
546.801331
 21
397.251526
 31
0.0
210
0.0
220
0.0
230
1.0
  0
LINE
  5
74
100
AcDbEntity
  8
0
370
    13
390
0
 62
     7
 48
0.003751
100
AcDbLine
 10
547.142822
 20
397.227295
 30
0.0
 11
547.224609
 21
397.353088
 31
0.0
210
0.0
220
0.0
230
1.0
  0
LINE
  5
75
100
AcDbEntity
  8
0
370
    13
390
0
 62
     7
 48
0.003751
100
AcDbLine
 10
545.258179
 20
398.561768
 30
0.0
 11
545.108154
 21
398.561768
 31
0.0
210
0.0
220
0.0
230
1.0
  0
ARC
  5
76
100
AcDbEntity
  8
0
370
    35
390
0
 62
     7
100
AcDbCircle
 10
545.408203
 20
398.561768
 30
0.0
 40
0.15
210
0.0
220
0.0
230
1.0
100
AcDbArc
 50
89.999996
 51
179.999995
  0
LINE
  5
77
100
AcDbEntity
  8
0
370
    13
390
0
 62
     7
 48
0.003751
100
AcDbLine
 10
545.408203
 20
398.711761
 30
0.0
 11
545.408203
 21
398.861786
 31
0.0
210
0.0
220
0.0
230
1.0
  0
LINE
  5
78
100
AcDbEntity
  8
0
370
    13
390
0
 62
     7
 48
0.003751
100
AcDbLine
 10
545.608154
 20
398.861786
 30
0.0
 11
545.608154
 21
398.711761
 31
0.0
210
0.0
220
0.0
230
1.0
  0
LINE
  5
79
100
AcDbEntity
  8
0
370
    35
390
0
 62
     7
 48
0.004999
100
AcDbLine
 10
545.608154
 20
398.711761
 30
0.0
 11
545.408203
 21
398.711761
 31
0.0
210
0.0
220
0.0
230
1.0
  0
LINE
  5
7A
100
AcDbEntity
  8
0
370
    13
390
0
 62
     7
 48
0.003751
100
AcDbLine
 10
545.908203
 20
398.561768
 30
0.0
 11
545.758179
 21
398.561768
 31
0.0
210
0.0
220
0.0
230
1.0
  0
ARC
  5
7B
100
AcDbEntity
  8
0
370
    35
390
0
 62
     7
100
AcDbCircle
 10
545.608154
 20
398.561768
 30
0.0
 40
0.15
210
0.0
220
0.0
230
1.0
100
AcDbArc
 50
359.999999
 51
90.000003
  0
LINE
  5
7C
100
AcDbEntity
  8
0
370
    13
390
0
 62
     7
 48
0.003751
100
AcDbLine
 10
545.908203
 20
394.861786
 30
0.0
 11
545.758179
 21
394.861786
 31
0.0
210
0.0
220
0.0
230
1.0
  0
LINE
  5
7D
100
AcDbEntity
  8
0
370
    35
390
0
 62
     7
 48
0.0925
100
AcDbLine
 10
545.758179
 20
394.861786
 30
0.0
 11
545.758179
 21
398.561768
 31
0.0
210
0.0
220
0.0
230
1.0
  0
LINE
  5
7E
100
AcDbEntity
  8
0
370
    13
390
0
 62
     7
 48
0.00375
100
AcDbLine
 10
545.608154
 20
394.561768
 30
0.0
 11
545.608154
 21
394.711761
 31
0.0
210
0.0
220
0.0
230
1.0
  0
ARC
  5
7F
100
AcDbEntity
  8
0
370
    35
390
0
 62
     7
100
AcDbCircle
 10
545.608154
 20
394.861786
 30
0.0
 40
0.15
210
0.0
220
0.0
230
1.0
100
AcDbArc
 50
269.999997
 51
0.000001
  0
LINE
  5
80
100
AcDbEntity
  8
0
370
    13
390
0
 62
     7
 48
0.00375
100
AcDbLine
 10
545.408203
 20
394.711761
 30
0.0
 11
545.408203
 21
394.561768
 31
0.0
210
0.0
220
0.0
230
1.0
  0
LINE
  5
81
100
AcDbEntity
  8
0
370
    35
390
0
 62
     7
 48
0.004999
100
AcDbLine
 10
545.608154
 20
394.711761
 30
0.0
 11
545.408203
 21
394.711761
 31
0.0
210
0.0
220
0.0
230
1.0
  0
ARC
  5
82
100
AcDbEntity
  8
0
370
    35
390
0
 62
     7
100
AcDbCircle
 10
545.408203
 20
394.861786
 30
0.0
 40
0.15
210
0.0
220
0.0
230
1.0
100
AcDbArc
 50
180.000005
 51
270.000004
  0
LINE
  5
83
100
AcDbEntity
  8
0
370
    13
390
0
 62
     7
 48
0.003751
100
AcDbLine
 10
545.258179
 20
394.861786
 30
0.0
 11
545.108154
 21
394.861786
 31
0.0
210
0.0
220
0.0
230
1.0
  0
LINE
  5
84
100
AcDbEntity
  8
0
370
    35
390
0
 62
     7
 48
0.0925
100
AcDbLine
 10
545.258179
 20
394.861786
 30
0.0
 11
545.258179
 21
398.561768
 31
0.0
210
0.0
220
0.0
230
1.0
  0
CIRCLE
  5
85
100
AcDbEntity
  8
0
370
    35
390
0
 62
     7
100
AcDbCircle
 10
545.508179
 20
394.711761
 30
0.0
 40
6.0
210
0.0
220
0.0
230
1.0
  0
CIRCLE
  5
86
100
AcDbEntity
  8
0
370
    13
390
0
 62
     7
100
AcDbCircle
 10
545.508179
 20
394.711761
 30
0.0
 40
6.15
210
0.0
220
0.0
230
1.0
  0
CIRCLE
  5
87
100
AcDbEntity
  8
0
370
    13
390
0
 62
     7
100
AcDbCircle
 10
545.508179
 20
394.711761
 30
0.0
 40
6.962936
210
0.0
220
0.0
230
1.0
  0
CIRCLE
  5
88
100
AcDbEntity
  8
0
370
    13
390
0
 62
     7
100
AcDbCircle
 10
545.508179
 20
394.711761
 30
0.0
 40
7.032798
210
0.0
220
0.0
230
1.0
  0
CIRCLE
  5
89
100
AcDbEntity
  8
0
370
    13
390
0
 62
     7
100
AcDbCircle
 10
545.508179
 20
394.711761
 30
0.0
 40
8.819862
210
0.0
220
0.0
230
1.0
  0
CIRCLE
  5
8A
100
AcDbEntity
  8
0
370
    35
390
0
 62
     7
100
AcDbCircle
 10
545.508179
 20
394.711761
 30
0.0
 40
8.9
210
0.0
220
0.0
230
1.0
  0
CIRCLE
  5
8B
100
AcDbEntity
  8
0
370
    35
390
0
 62
     7
100
AcDbCircle
 10
545.508179
 20
369.151581
 30
0.0
 40
9.5
210
0.0
220
0.0
230
1.0
  0
LINE
  5
8C
100
AcDbEntity
  8
0
370
    35
390
0
 62
     7
 48
0.047995
100
AcDbLine
 10
540.758179
 20
377.378815
 30
0.0
 11
539.095581
 21
376.418915
 31
0.0
210
0.0
220
0.0
230
1.0
  0
LINE
  5
8D
100
AcDbEntity
  8
0
370
    35
390
0
 62
     7
 48
0.049584
100
AcDbLine
 10
536.008179
 20
371.134949
 30
0.0
 11
536.008179
 21
369.151581
 31
0.0
210
0.0
220
0.0
230
1.0
  0
LINE
  5
8E
100
AcDbEntity
  8
0
370
    35
390
0
 62
     7
 48
0.050485
100
AcDbLine
 10
536.008179
 20
369.151581
 30
0.0
 11
536.008179
 21
367.132172
 31
0.0
210
0.0
220
0.0
230
1.0
  0
LINE
  5
8F
100
AcDbEntity
  8
0
370
    35
390
0
 62
     7
 48
0.051344
100
AcDbLine
 10
538.979553
 20
361.951233
 30
0.0
 11
540.758179
 21
360.924347
 31
0.0
210
0.0
220
0.0
230
1.0
  0
LINE
  5
90
100
AcDbEntity
  8
0
370
    35
390
0
 62
     7
 48
0.051441
100
AcDbLine
 10
540.758179
 20
360.924347
 30
0.0
 11
542.540161
 21
359.895538
 31
0.0
210
0.0
220
0.0
230
1.0
  0
LINE
  5
91
100
AcDbEntity
  8
0
370
    35
390
0
 62
     7
 48
0.05085
100
AcDbLine
 10
548.496704
 20
359.907349
 30
0.0
 11
550.258179
 21
360.924347
 31
0.0
210
0.0
220
0.0
230
1.0
  0
LINE
  5
92
100
AcDbEntity
  8
0
370
    35
390
0
 62
     7
 48
0.048505
100
AcDbLine
 10
555.008179
 20
367.211365
 30
0.0
 11
555.008179
 21
369.151581
 31
0.0
210
0.0
220
0.0
230
1.0
  0
LINE
  5
93
100
AcDbEntity
  8
0
370
    35
390
0
 62
     7
 48
0.050032
100
AcDbLine
 10
550.258179
 20
360.924347
 30
0.0
 11
551.991333
 21
361.924957
 31
0.0
210
0.0
220
0.0
230
1.0
  0
LINE
  5
94
100
AcDbEntity
  8
0
370
    35
390
0
 62
     7
 48
0.046616
100
AcDbLine
 10
551.872986
 20
376.446503
 30
0.0
 11
550.258179
 21
377.378815
 31
0.0
210
0.0
220
0.0
230
1.0
  0
LINE
  5
95
100
AcDbEntity
  8
0
370
    35
390
0
 62
     7
 48
0.047572
100
AcDbLine
 10
555.008179
 20
369.151581
 30
0.0
 11
555.008179
 21
371.054443
 31
0.0
210
0.0
220
0.0
230
1.0
  0
LINE
  5
96
100
AcDbEntity
  8
0
370
    35
390
0
 62
     7
 48
0.047194
100
AcDbLine
 10
542.393005
 20
378.322693
 30
0.0
 11
540.758179
 21
377.378815
 31
0.0
210
0.0
220
0.0
230
1.0
  0
LINE
  5
97
100
AcDbEntity
  8
0
370
    35
390
0
 62
     7
 48
0.046503
100
AcDbLine
 10
550.258179
 20
377.378815
 30
0.0
 11
548.647278
 21
378.308899
 31
0.0
210
0.0
220
0.0
230
1.0
  0
CIRCLE
  5
98
100
AcDbEntity
  8
0
370
    35
390
0
 62
     7
100
AcDbCircle
 10
545.508179
 20
369.151581
 30
0.0
 40
9.15
210
0.0
220
0.0
230
1.0
  0
CIRCLE
  5
99
100
AcDbEntity
  8
0
370
    13
390
0
 62
     7
100
AcDbCircle
 10
545.508179
 20
369.151581
 30
0.0
 40
5.6
210
0.0
220
0.0
230
1.0
  0
CIRCLE
  5
9A
100
AcDbEntity
  8
0
370
    35
390
0
 62
     7
100
AcDbCircle
 10
545.508179
 20
369.151581
 30
0.0
 40
5.75
210
0.0
220
0.0
230
1.0
  0
CIRCLE
  5
9B
100
AcDbEntity
  8
0
370
    35
390
0
 62
     7
100
AcDbCircle
 10
545.508179
 20
369.151581
 30
0.0
 40
6.0
210
0.0
220
0.0
230
1.0
  0
CIRCLE
  5
9C
100
AcDbEntity
  8
0
370
    13
390
0
 62
     7
100
AcDbCircle
 10
545.508179
 20
369.151581
 30
0.0
 40
6.15
210
0.0
220
0.0
230
1.0
  0
CIRCLE
  5
9D
100
AcDbEntity
  8
0
370
    13
390
0
 62
     7
100
AcDbCircle
 10
545.508179
 20
369.151581
 30
0.0
 40
6.962936
210
0.0
220
0.0
230
1.0
  0
CIRCLE
  5
9E
100
AcDbEntity
  8
0
370
    13
390
0
 62
     7
100
AcDbCircle
 10
545.508179
 20
369.151581
 30
0.0
 40
7.032798
210
0.0
220
0.0
230
1.0
  0
CIRCLE
  5
9F
100
AcDbEntity
  8
0
370
    13
390
0
 62
     7
100
AcDbCircle
 10
545.508179
 20
369.151581
 30
0.0
 40
8.819862
210
0.0
220
0.0
230
1.0
  0
CIRCLE
  5
A0
100
AcDbEntity
  8
0
370
    35
390
0
 62
     7
100
AcDbCircle
 10
545.508179
 20
369.151581
 30
0.0
 40
8.9
210
0.0
220
0.0
230
1.0
  0
ENDSEC
  0
SECTION
  2
OBJECTS
  0
DICTIONARY
  5
19
100
AcDbDictionary
280
     0
281
     1
  3
ACAD_GROUP
350
1A
  3
ACAD_MLINESTYLE
350
1B
  3
ACAD_LAYOUT
350
1E
  3
ACAD_PLOTSETTINGS
350
22
  3
ACAD_PLOTSTYLENAME
350
1F
  3
ACAD_WIPEOUT_VARS
350
23
  0
DICTIONARY
  5
1A
102
{ACAD_REACTORS
330
19
102
}
100
AcDbDictionary
280
     0
281
     1
  0
DICTIONARY
  5
1B
102
{ACAD_REACTORS
330
19
102
}
100
AcDbDictionary
280
     0
281
     1
  3
Standard
350
1C
  0
MLINESTYLE
  5
1C
102
{ACAD_REACTORS
330
1B
102
}
100
AcDbMlineStyle
  2
Standard
 70
     0
  3

 62
     0
 51
90.0
 52
90.0
 71
     2
 49
0.5
 62
   256
  6
ByLayer
 49
-0.5
 62
   256
  6
ByLayer
  0
ACDBDICTIONARYWDFLT
  5
1F
102
{ACAD_REACTORS
330
19
102
}
100
AcDbDictionary
281
     1
  3
Normal
350
1D
100
AcDbDictionaryWithDefault
340
1D
  0
ACDBPLACEHOLDER
  5
1D
102
{ACAD_REACTORS
330
1F
102
}
  0
LAYOUT
  5
20
102
{ACAD_REACTORS
330
1E
102
}
100
AcDbPlotSettings
  1

  2

  4

  6

 40
0.0
 41
0.0
 42
0.0
 43
0.0
 44
0.0
 45
0.0
 46
0.0
 47
0.0
 48
0.0
 49
0.0
140
0.0
141
0.0
142
1.0
143
1.0
 70
  1024
 72
     0
 73
     0
 74
     0
  7

 75
     0
147
1.0
148
0.0
149
0.0
100
AcDbLayout
  1
Model
 70
     0
 71
     0
 10
0.0
 20
0.0
 11
0.0
 21
0.0
 12
0.0
 22
0.0
 32
0.0
 14
0.0
 24
0.0
 34
0.0
 15
0.0
 25
0.0
 35
0.0
146
0.0
 13
0.0
 23
0.0
 33
0.0
 16
0.0
 26
0.0
 36
0.0
 17
0.0
 27
0.0
 37
0.0
 76
     0
330
A
331
0
345
0
346
0
  0
LAYOUT
  5
21
102
{ACAD_REACTORS
330
1E
102
}
100
AcDbPlotSettings
  1

  2

  4

  6

 40
0.0
 41
0.0
 42
0.0
 43
0.0
 44
0.0
 45
0.0
 46
0.0
 47
0.0
 48
0.0
 49
0.0
140
0.0
141
0.0
142
1.0
143
1.0
 70
     0
 72
     0
 73
     0
 74
     0
  7

 75
     0
147
1.0
148
0.0
149
0.0
100
AcDbLayout
  1
Layout1
 70
     0
 71
     0
 10
0.0
 20
0.0
 11
0.0
 21
0.0
 12
0.0
 22
0.0
 32
0.0
 14
0.0
 24
0.0
 34
0.0
 15
0.0
 25
0.0
 35
0.0
146
0.0
 13
0.0
 23
0.0
 33
0.0
 16
0.0
 26
0.0
 36
0.0
 17
0.0
 27
0.0
 37
0.0
 76
     0
330
B
331
0
345
0
346
0
  0
DICTIONARY
  5
1E
102
{ACAD_REACTORS
330
19
102
}
100
AcDbDictionary
280
     0
281
     1
  3
Layout1
350
21
  3
Model
350
20
  0
DICTIONARY
  5
22
102
{ACAD_REACTORS
330
19
102
}
100
AcDbDictionary
280
     0
281
     1
  0
WIPEOUTVARIABLES
  5
23
100
AcDbWipeoutVariables
 70
     1
  0
ENDSEC
  0
EOF
