M48
; DRILL file {KiCad (5.1.2)-1} date 5/23/2019 11:40:09 AM
; FORMAT={-:-/ absolute / inch / decimal}
; #@! TF.CreationDate,2019-05-23T11:40:09-04:00
; #@! TF.GenerationSoftware,Kicad,Pcbnew,(5.1.2)-1
; #@! TF.FileFunction,Plated,1,2,PTH
FMAT,2
INCH
T1C0.0157
T2C0.0295
T3C0.0394
T4C0.0551
%
G90
G05
T1
X4.2126Y-1.8898
X4.2165Y-1.7126
X4.2618Y-1.7323
X4.2618Y-1.9193
X4.3071Y-2.0827
X4.311Y-1.7717
X4.6732Y-1.7165
X4.7165Y-1.7087
X4.8819Y-2.0433
X4.9606Y-2.0354
X5.0551Y-3.378
X5.1102Y-1.9921
X5.1969Y-1.8898
X5.2008Y-1.7008
X5.2461Y-1.7421
X5.2461Y-1.9144
X5.2953Y-1.7717
X5.2953Y-2.0512
X5.3268Y-3.3819
X5.5984Y-3.3858
X5.6575Y-1.7008
X5.6969Y-1.7008
X5.811Y-1.939
X5.8819Y-2.0551
X5.8819Y-3.3858
X5.9685Y-2.0512
X6.1142Y-2.0
X6.1496Y-3.3819
X6.1811Y-1.8898
X6.185Y-1.6969
X6.2303Y-1.752
X6.2303Y-1.9144
X6.2795Y-1.7766
X6.2795Y-2.0512
X6.2874Y-1.9173
X6.3346Y-1.9134
X6.3661Y-3.378
X6.626Y-3.374
X6.6417Y-1.7165
X6.6811Y-1.7205
X6.8819Y-3.374
X6.8858Y-2.0551
X6.9685Y-2.0551
X7.0276Y-3.2717
X7.0394Y-2.1417
X7.0472Y-1.9843
X7.1654Y-1.8573
X7.1663Y-1.6959
X7.2146Y-1.9193
X7.2159Y-1.7506
X7.2638Y-1.7717
X7.2687Y-1.9085
X7.626Y-1.6969
X7.6614Y-1.7008
X7.8337Y-2.0571
X7.9016Y-2.0551
T2
X7.0079Y-3.6614
X7.0866Y-3.6614
X7.4409Y-3.6614
X7.5197Y-3.6614
X7.0472Y-1.378
X7.126Y-1.378
X7.2047Y-1.378
X7.2835Y-1.378
X7.3622Y-1.378
X7.4409Y-1.378
X7.5197Y-1.378
X7.5984Y-1.378
X7.6772Y-1.378
X7.7559Y-1.378
X7.8346Y-1.378
X4.1929Y-3.6614
X4.2717Y-3.6614
X5.6299Y-3.6614
X5.7087Y-3.6614
X4.0945Y-1.378
X4.1732Y-1.378
X4.252Y-1.378
X4.3307Y-1.378
X4.4094Y-1.378
X4.4882Y-1.378
X4.5669Y-1.378
X4.6457Y-1.378
X4.7244Y-1.378
X4.8031Y-1.378
X4.8819Y-1.378
X5.0787Y-1.378
X5.1575Y-1.378
X5.2362Y-1.378
X5.315Y-1.378
X5.3937Y-1.378
X5.4724Y-1.378
X5.5512Y-1.378
X5.6299Y-1.378
X5.7087Y-1.378
X5.7874Y-1.378
X5.8661Y-1.378
X6.063Y-1.378
X6.1417Y-1.378
X6.2205Y-1.378
X6.2992Y-1.378
X6.378Y-1.378
X6.4567Y-1.378
X6.5354Y-1.378
X6.6142Y-1.378
X6.6929Y-1.378
X6.7717Y-1.378
X6.8504Y-1.378
X6.1811Y-3.6614
X6.2598Y-3.6614
X6.4567Y-3.6614
X6.5354Y-3.6614
X5.3543Y-3.6614
X5.4331Y-3.6614
X5.0787Y-3.6614
X5.1575Y-3.6614
X6.7323Y-3.6614
X6.811Y-3.6614
X5.9055Y-3.6614
X5.9843Y-3.6614
X4.4685Y-3.6614
X4.5472Y-3.6614
T3
X5.2362Y-3.189
X5.3362Y-3.189
X5.4362Y-3.189
X5.5362Y-3.189
X5.6362Y-3.189
X5.7362Y-3.189
X5.8362Y-3.189
X5.9362Y-3.189
X6.0362Y-3.189
X6.1362Y-3.189
X6.2362Y-3.189
X6.3362Y-3.189
X5.2362Y-3.0709
X5.3362Y-3.0709
X5.4362Y-3.0709
X5.5362Y-3.0709
X5.6362Y-3.0709
X5.7362Y-3.0709
X5.8362Y-3.0709
X5.9362Y-3.0709
X6.0362Y-3.0709
X6.1362Y-3.0709
X6.2362Y-3.0709
X6.3362Y-3.0709
X7.2441Y-2.5197
X7.2441Y-2.6197
X7.2441Y-2.7197
X5.2362Y-2.2835
X5.3362Y-2.2835
X5.4362Y-2.2835
X5.5362Y-2.2835
X5.6362Y-2.2835
X5.7362Y-2.2835
X5.8362Y-2.2835
X5.9362Y-2.2835
X6.0362Y-2.2835
X6.1362Y-2.2835
X6.2362Y-2.2835
X6.3362Y-2.2835
X6.4362Y-2.2835
X6.5362Y-2.2835
X6.6362Y-2.2835
X6.7362Y-2.2835
X5.2362Y-2.1654
X5.3362Y-2.1654
X5.4362Y-2.1654
X5.5362Y-2.1654
X5.6362Y-2.1654
X5.7362Y-2.1654
X5.8362Y-2.1654
X5.9362Y-2.1654
X6.0362Y-2.1654
X6.1362Y-2.1654
X6.2362Y-2.1654
X6.3362Y-2.1654
X6.4362Y-2.1654
X6.5362Y-2.1654
X6.6362Y-2.1654
X6.7362Y-2.1654
T4
X7.6772Y-2.5197
X7.8772Y-2.5197
X7.6772Y-2.874
X7.8772Y-2.874
T0
M30
